<svg xmlns="http://www.w3.org/2000/svg"><style>:root svg:not(:target){display:none}</style><svg viewBox="0 0 27 29" fill="none" id="boil-adv"><path d="M11.375 0C9.74375 0 8.475 1.35937 8.475 3.08125C8.475 4.80312 9.74375 6.1625 11.375 6.1625C13.0063 6.1625 14.275 4.80312 14.275 3.08125C14.275 1.35937 13.0063 0 11.375 0ZM11.375 1.17812C12.3719 1.17812 13.0969 2.02094 13.0969 3.08125C13.0969 4.07812 12.3084 4.98438 11.375 4.98438C10.3781 4.98438 9.65313 4.14156 9.65313 3.08125C9.65313 2.08437 10.4325 1.17812 11.375 1.17812ZM0.5 24.7406C0.5 25.9188 0.907813 26.9156 1.85938 27.7313C2.85625 28.5831 4.03438 28.5106 4.03438 28.5106H23.0656C23.845 28.5106 24.8781 28.13 25.6937 27.0606C26.5366 26.0638 26.4822 24.7044 26.4822 24.7044V7.48563C26.4822 7.05063 26.3734 6.8875 25.7391 6.8875C25.1047 6.8875 25.0503 7.15938 25.0503 7.47656V24.6953C25.0322 24.9944 24.9778 25.7828 24.3072 26.4172C23.5731 27.0425 22.8572 26.9609 22.8572 26.9609C22.8572 26.9609 4.73219 26.9609 3.82594 26.9338C3.48156 26.8703 2.91969 26.7434 2.37594 26.0275C1.86844 25.3025 1.96812 24.3962 1.96812 24.3962V7.1775C1.96812 6.71531 1.7325 6.54313 1.24313 6.54313C0.75375 6.54313 0.5 6.71531 0.5 7.12313V24.7406ZM16.8125 8.42813C15.725 8.66375 14.6375 8.80875 12.5531 10.7844C10.4688 12.7781 8.92813 12.6875 7.3875 12.5969C5.84688 12.5063 4.21563 11.0563 3.94375 10.6938C3.60844 10.3403 3.0375 10.5759 2.85625 10.8116C2.70219 11.0472 2.70219 11.455 2.965 11.8084C4.23375 12.9866 5.41188 13.8928 7.6775 14.0741C9.94312 14.2916 12.1181 13.2675 13.5681 11.8084C15.0181 10.3584 15.7431 10.0866 16.8306 9.90531C19.4587 9.48844 20.9994 10.5216 21.9056 11.1741C22.9025 12.2616 23.1744 11.9534 23.4462 11.6453C23.99 10.9294 23.2197 10.3766 22.3588 9.74219C20.5463 8.56406 18.8244 8.11094 16.8306 8.47344L16.8125 8.42813ZM7.75 15.5875C6.57188 15.5875 5.66562 16.5844 5.66562 17.8531C5.66562 19.1219 6.57188 20.1188 7.75 20.1188C8.92813 20.1188 9.83438 19.1219 9.83438 17.8531C9.83438 16.5844 8.92813 15.5875 7.75 15.5875ZM19.5312 16.3669C17.9906 16.3669 16.7219 17.7262 16.7219 19.3575C16.7219 20.9888 17.9906 22.3481 19.5312 22.3481C21.0719 22.3481 22.3406 20.9888 22.3406 19.3575C22.3406 17.7262 21.0719 16.3669 19.5312 16.3669ZM19.5312 17.8169C20.3288 17.8169 20.9813 18.5147 20.9813 19.3575C20.9813 20.2184 20.3288 20.8981 19.5312 20.8981C18.7337 20.8981 18.0812 20.2003 18.0812 19.3575C18.0812 18.4966 18.7337 17.8169 19.5312 17.8169Z" fill="white"></path></svg><svg viewBox="0 0 27 31" fill="none" id="clock-adv"><path d="M6.12057 0C5.0538 0 5.0538 1.5831 6.12057 1.5831H12.7878V3.18731C5.96055 3.62002 0.562721 9.41417 0.562721 16.4854C0.562721 20.4959 2.31222 24.1159 5.07514 26.5539C5.55518 26.976 5.61919 27.7254 5.18181 28.1897L3.64567 29.7412C2.89894 30.4272 4.00837 31.4931 4.68043 30.7438L6.68595 28.7069C7.03798 28.3692 7.5607 28.2847 7.99807 28.4958C9.72279 29.3397 11.6191 29.784 13.5432 29.795C15.4673 29.8059 17.3687 29.3833 19.1031 28.5591C19.5298 28.348 20.0632 28.4325 20.4045 28.7702L22.3461 30.7438C23.0288 31.377 24.0102 30.4272 23.3915 29.7412L21.9407 28.2636C21.4926 27.8098 21.5567 27.0605 22.0474 26.6277C23.5031 25.3585 24.6674 23.7959 25.4623 22.0447C26.2571 20.2936 26.6641 18.3944 26.6558 16.4748C26.6558 9.40362 21.226 3.59891 14.388 3.18731V1.5831H21.0553C22.122 1.5831 22.122 0 21.0553 0H6.12057ZM2.00285 16.4748C2.00285 9.94187 7.198 4.65431 13.6093 4.65431C20.0098 4.65431 25.205 9.94187 25.205 16.4748C25.205 23.0183 20.0098 28.3164 13.6093 28.3164C7.20867 28.3164 2.00285 23.0183 2.00285 16.4748ZM12.7985 8.37988C12.7985 7.28226 14.4627 7.28226 14.4627 8.37988V17.0131C14.4627 17.237 14.3728 17.4517 14.2127 17.6101C14.0527 17.7684 13.8356 17.8574 13.6093 17.8574C13.3961 17.8574 13.1915 17.7743 13.0397 17.6262C12.888 17.478 12.8013 17.2767 12.7985 17.0658V8.37988ZM7.80605 10.9973C8.11444 10.9973 8.4102 10.8761 8.62826 10.6603C8.84632 10.4446 8.96883 10.152 8.96883 9.84688C8.96883 9.54178 8.84632 9.24918 8.62826 9.03344C8.4102 8.8177 8.11444 8.6965 7.80605 8.6965C7.51825 8.72386 7.25108 8.85633 7.05666 9.06805C6.86224 9.27977 6.75453 9.55556 6.75453 9.84161C6.75453 10.1277 6.86224 10.4034 7.05666 10.6152C7.25108 10.8269 7.51825 10.9593 7.80605 10.9867V10.9973ZM19.4018 10.9973C19.7102 10.9973 20.0059 10.8761 20.224 10.6603C20.4421 10.4446 20.5646 10.152 20.5646 9.84688C20.5646 9.54178 20.4421 9.24918 20.224 9.03344C20.0059 8.8177 19.7102 8.6965 19.4018 8.6965C19.114 8.72386 18.8468 8.85633 18.6524 9.06805C18.458 9.27977 18.3503 9.55556 18.3503 9.84161C18.3503 10.1277 18.458 10.4034 18.6524 10.6152C18.8468 10.8269 19.114 10.9593 19.4018 10.9867V10.9973ZM8.96883 23.5882C8.96883 25.1185 6.64328 25.1185 6.64328 23.5882C6.64328 22.0579 8.96883 22.0579 8.96883 23.5882ZM13.6093 27.0288C13.7706 27.0441 13.9334 27.0259 14.0872 26.9754C14.241 26.9248 14.3824 26.843 14.5024 26.7352C14.6223 26.6273 14.7182 26.4959 14.7838 26.3493C14.8494 26.2026 14.8833 26.044 14.8833 25.8837C14.8833 25.7233 14.8494 25.5648 14.7838 25.4181C14.7182 25.2715 14.6223 25.14 14.5024 25.0322C14.3824 24.9244 14.241 24.8426 14.0872 24.792C13.9334 24.7414 13.7706 24.7232 13.6093 24.7386C13.3215 24.7659 13.0543 24.8984 12.8599 25.1101C12.6654 25.3219 12.5577 25.5976 12.5577 25.8837C12.5577 26.1697 12.6654 26.4455 12.8599 26.6572C13.0543 26.869 13.3215 27.0014 13.6093 27.0288ZM5.49117 16.6437C5.50668 16.8033 5.48829 16.9643 5.43717 17.1165C5.38606 17.2687 5.30336 17.4086 5.19437 17.5273C5.08539 17.646 4.95252 17.7408 4.80431 17.8057C4.6561 17.8706 4.49581 17.9041 4.33373 17.9041C4.17166 17.9041 4.01137 17.8706 3.86316 17.8057C3.71494 17.7408 3.58208 17.646 3.4731 17.5273C3.36411 17.4086 3.28141 17.2687 3.23029 17.1165C3.17918 16.9643 3.16079 16.8033 3.17629 16.6437C3.20396 16.3589 3.33785 16.0946 3.55185 15.9023C3.76585 15.7099 4.04461 15.6033 4.33373 15.6033C4.62286 15.6033 4.90162 15.7099 5.11562 15.9023C5.32962 16.0946 5.46351 16.3589 5.49117 16.6437ZM22.8794 17.794C23.0408 17.8094 23.2036 17.7912 23.3574 17.7406C23.5112 17.6901 23.6526 17.6082 23.7726 17.5004C23.8925 17.3926 23.9884 17.2611 24.054 17.1145C24.1196 16.9679 24.1535 16.8093 24.1535 16.6489C24.1535 16.4886 24.1196 16.33 24.054 16.1834C23.9884 16.0367 23.8925 15.9053 23.7726 15.7975C23.6526 15.6896 23.5112 15.6078 23.3574 15.5573C23.2036 15.5067 23.0408 15.4885 22.8794 15.5038C22.5916 15.5312 22.3245 15.6637 22.13 15.8754C21.9356 16.0871 21.8279 16.3629 21.8279 16.6489C21.8279 16.935 21.9356 17.2108 22.13 17.4225C22.3245 17.6342 22.5916 17.7667 22.8794 17.794ZM20.5646 23.5987C20.5646 25.1185 18.239 25.1185 18.239 23.5882C18.239 22.0579 20.5646 22.0579 20.5646 23.5882V23.5987Z" fill="white"></path></svg><svg viewBox="0 0 26 30" fill="none" id="eat-adv"><path fill-rule="evenodd" clip-rule="evenodd" d="M19.1173 0.0761497C19.491 -0.0786313 19.9211 0.00692445 20.2071 0.292922C21.1156 1.20142 22.3038 3.17065 23.2659 6.21082C24.2373 9.28039 25 13.5081 25 19C25 19.5523 24.5523 20 24 20H20.5V29C20.5 29.5523 20.0523 30 19.5 30C18.9477 30 18.5 29.5523 18.5 29V1.00003C18.5 0.595567 18.7436 0.230931 19.1173 0.0761497ZM20.5 18H22.9912C22.9053 13.1836 22.2051 9.48755 21.3591 6.81424C21.0807 5.93457 20.7885 5.1715 20.5 4.51895V18Z" fill="white"></path><path fill-rule="evenodd" clip-rule="evenodd" d="M6.5 0C7.05228 0 7.5 0.447715 7.5 1V29C7.5 29.5523 7.05228 30 6.5 30C5.94772 30 5.5 29.5523 5.5 29V1C5.5 0.447715 5.94772 0 6.5 0Z" fill="white"></path><path fill-rule="evenodd" clip-rule="evenodd" d="M2 0C2.55228 0 3 0.447715 3 1V6.5C3 7.05686 3.19203 7.81518 3.70088 8.41656C4.18001 8.98281 5.01446 9.5 6.49993 9.5C7.05221 9.5 7.49993 9.94771 7.49993 10.5C7.49993 11.0523 7.05221 11.5 6.49993 11.5C4.48547 11.5 3.06995 10.7672 2.1741 9.70844C1.30797 8.68482 1 7.44314 1 6.5V1C1 0.447715 1.44772 0 2 0Z" fill="white"></path><path fill-rule="evenodd" clip-rule="evenodd" d="M11 0C10.4477 0 10 0.447715 10 1V6.5C10 7.05686 9.80797 7.81518 9.29912 8.41656C8.81999 8.98281 7.9854 9.5 6.49993 9.5C5.94765 9.5 5.50007 9.94771 5.50007 10.5C5.50007 11.0523 5.94765 11.5 6.49993 11.5C8.51439 11.5 9.93005 10.7672 10.8259 9.70844C11.692 8.68482 12 7.44314 12 6.5V1C12 0.447715 11.5523 0 11 0Z" fill="white"></path></svg><svg viewBox="0 0 280 34" fill="none" id="html-academy"><path d="M10.752 11.536V23H9.2V17.784H3.016V23H1.464V11.536H3.016V16.648H9.2V11.536H10.752ZM21.4348 12.84H17.7228V23H16.1788V12.84H12.4588V11.536H21.4348V12.84ZM35.0639 11.536V23H33.7039V14.576C33.7039 14.464 33.7065 14.344 33.7119 14.216C33.7225 14.088 33.7332 13.9573 33.7439 13.824L29.8079 20.992C29.6852 21.232 29.4985 21.352 29.2479 21.352H29.0239C28.7732 21.352 28.5865 21.232 28.4639 20.992L24.4479 13.792C24.4799 14.0747 24.4959 14.336 24.4959 14.576V23H23.1359V11.536H24.2799C24.4185 11.536 24.5252 11.5493 24.5999 11.576C24.6745 11.6027 24.7465 11.6773 24.8159 11.8L28.7759 18.856C28.8399 18.984 28.9012 19.1173 28.9599 19.256C29.0239 19.3947 29.0825 19.536 29.1359 19.68C29.1892 19.536 29.2452 19.3947 29.3039 19.256C29.3625 19.112 29.4265 18.976 29.4959 18.848L33.3839 11.8C33.4479 11.6773 33.5172 11.6027 33.5919 11.576C33.6719 11.5493 33.7812 11.536 33.9199 11.536H35.0639ZM44.4993 21.696V23H37.9953V11.536H39.5393V21.696H44.4993ZM55.3801 18.744L53.5801 14.08C53.5268 13.9413 53.4708 13.7813 53.4121 13.6C53.3535 13.4133 53.2975 13.216 53.2441 13.008C53.1321 13.44 53.0175 13.8 52.9001 14.088L51.1001 18.744H55.3801ZM58.6121 23H57.4121C57.2735 23 57.1615 22.9653 57.0761 22.896C56.9908 22.8267 56.9268 22.7387 56.8841 22.632L55.8121 19.864H50.6681L49.5961 22.632C49.5641 22.728 49.5028 22.8133 49.4121 22.888C49.3215 22.9627 49.2095 23 49.0761 23H47.8761L52.4601 11.536H54.0281L58.6121 23ZM65.2055 16.336C65.1628 16.3947 65.1202 16.44 65.0775 16.472C65.0348 16.504 64.9762 16.52 64.9015 16.52C64.8215 16.52 64.7335 16.488 64.6375 16.424C64.5415 16.3547 64.4215 16.28 64.2775 16.2C64.1388 16.12 63.9655 16.048 63.7575 15.984C63.5548 15.9147 63.3042 15.88 63.0055 15.88C62.6055 15.88 62.2535 15.952 61.9495 16.096C61.6455 16.2347 61.3895 16.4373 61.1815 16.704C60.9788 16.9707 60.8242 17.2933 60.7175 17.672C60.6162 18.0507 60.5655 18.4747 60.5655 18.944C60.5655 19.4347 60.6215 19.872 60.7335 20.256C60.8455 20.6347 61.0028 20.9547 61.2055 21.216C61.4135 21.472 61.6615 21.6693 61.9495 21.808C62.2428 21.9413 62.5708 22.008 62.9335 22.008C63.2802 22.008 63.5655 21.968 63.7895 21.888C64.0135 21.8027 64.1975 21.7093 64.3415 21.608C64.4908 21.5067 64.6135 21.416 64.7095 21.336C64.8108 21.2507 64.9095 21.208 65.0055 21.208C65.1228 21.208 65.2135 21.2533 65.2775 21.344L65.6775 21.864C65.5015 22.0827 65.3015 22.2693 65.0775 22.424C64.8535 22.5787 64.6108 22.7093 64.3495 22.816C64.0935 22.9173 63.8242 22.992 63.5415 23.04C63.2588 23.088 62.9708 23.112 62.6775 23.112C62.1708 23.112 61.6988 23.0187 61.2615 22.832C60.8295 22.6453 60.4535 22.376 60.1335 22.024C59.8135 21.6667 59.5628 21.2293 59.3815 20.712C59.2002 20.1947 59.1095 19.6053 59.1095 18.944C59.1095 18.3413 59.1922 17.784 59.3575 17.272C59.5282 16.76 59.7735 16.32 60.0935 15.952C60.4188 15.5787 60.8162 15.288 61.2855 15.08C61.7602 14.872 62.3042 14.768 62.9175 14.768C63.4882 14.768 63.9895 14.8613 64.4215 15.048C64.8588 15.2293 65.2455 15.488 65.5815 15.824L65.2055 16.336ZM71.5981 19.352C70.9421 19.3733 70.3821 19.4267 69.9181 19.512C69.4595 19.592 69.0835 19.6987 68.7901 19.832C68.5021 19.9653 68.2915 20.1227 68.1581 20.304C68.0301 20.4853 67.9661 20.688 67.9661 20.912C67.9661 21.1253 68.0008 21.3093 68.0701 21.464C68.1395 21.6187 68.2328 21.7467 68.3501 21.848C68.4728 21.944 68.6141 22.016 68.7741 22.064C68.9395 22.1067 69.1155 22.128 69.3021 22.128C69.5528 22.128 69.7821 22.104 69.9901 22.056C70.1981 22.0027 70.3928 21.928 70.5741 21.832C70.7608 21.736 70.9368 21.6213 71.1021 21.488C71.2728 21.3547 71.4381 21.2027 71.5981 21.032V19.352ZM66.9981 16.04C67.4461 15.608 67.9288 15.2853 68.4461 15.072C68.9635 14.8587 69.5368 14.752 70.1661 14.752C70.6195 14.752 71.0221 14.8267 71.3741 14.976C71.7261 15.1253 72.0221 15.3333 72.2621 15.6C72.5021 15.8667 72.6835 16.1893 72.8061 16.568C72.9288 16.9467 72.9901 17.3627 72.9901 17.816V23H72.3581C72.2195 23 72.1128 22.9787 72.0381 22.936C71.9635 22.888 71.9048 22.7973 71.8621 22.664L71.7021 21.896C71.4888 22.0933 71.2808 22.2693 71.0781 22.424C70.8755 22.5733 70.6621 22.7013 70.4381 22.808C70.2141 22.9093 69.9741 22.9867 69.7181 23.04C69.4675 23.0987 69.1875 23.128 68.8781 23.128C68.5635 23.128 68.2675 23.0853 67.9901 23C67.7128 22.9093 67.4701 22.776 67.2621 22.6C67.0595 22.424 66.8968 22.2027 66.7741 21.936C66.6568 21.664 66.5981 21.344 66.5981 20.976C66.5981 20.656 66.6861 20.3493 66.8621 20.056C67.0381 19.7573 67.3235 19.4933 67.7181 19.264C68.1128 19.0347 68.6275 18.848 69.2621 18.704C69.8968 18.5547 70.6755 18.4693 71.5981 18.448V17.816C71.5981 17.1867 71.4621 16.712 71.1901 16.392C70.9181 16.0667 70.5208 15.904 69.9981 15.904C69.6461 15.904 69.3501 15.9493 69.1101 16.04C68.8755 16.1253 68.6701 16.224 68.4941 16.336C68.3235 16.4427 68.1741 16.5413 68.0461 16.632C67.9235 16.7173 67.8008 16.76 67.6781 16.76C67.5821 16.76 67.4995 16.736 67.4301 16.688C67.3608 16.6347 67.3021 16.5707 67.2541 16.496L66.9981 16.04ZM80.4393 16.824C80.1726 16.4667 79.8846 16.2187 79.5753 16.08C79.2659 15.936 78.9193 15.864 78.5353 15.864C77.7833 15.864 77.2046 16.1333 76.7993 16.672C76.3939 17.2107 76.1913 17.9787 76.1913 18.976C76.1913 19.504 76.2366 19.9573 76.3273 20.336C76.4179 20.7093 76.5513 21.0187 76.7273 21.264C76.9033 21.504 77.1193 21.68 77.3753 21.792C77.6313 21.904 77.9219 21.96 78.2473 21.96C78.7166 21.96 79.1246 21.8533 79.4713 21.64C79.8233 21.4267 80.1459 21.1253 80.4393 20.736V16.824ZM81.8633 11.216V23H81.0153C80.8126 23 80.6846 22.9013 80.6313 22.704L80.5033 21.72C80.1566 22.136 79.7619 22.472 79.3193 22.728C78.8766 22.984 78.3646 23.112 77.7833 23.112C77.3193 23.112 76.8979 23.024 76.5193 22.848C76.1406 22.6667 75.8179 22.4027 75.5513 22.056C75.2846 21.7093 75.0793 21.2773 74.9353 20.76C74.7913 20.2427 74.7193 19.648 74.7193 18.976C74.7193 18.3787 74.7993 17.824 74.9593 17.312C75.1193 16.7947 75.3486 16.3467 75.6473 15.968C75.9459 15.5893 76.3113 15.2933 76.7433 15.08C77.1806 14.8613 77.6713 14.752 78.2153 14.752C78.7113 14.752 79.1353 14.8373 79.4873 15.008C79.8446 15.1733 80.1619 15.4053 80.4393 15.704V11.216H81.8633ZM89.5364 18.064C89.5364 17.7333 89.4884 17.432 89.3924 17.16C89.3017 16.8827 89.1657 16.6453 88.9844 16.448C88.8084 16.2453 88.5924 16.0907 88.3364 15.984C88.0804 15.872 87.7897 15.816 87.4644 15.816C86.7817 15.816 86.2404 16.016 85.8404 16.416C85.4457 16.8107 85.2004 17.36 85.1044 18.064H89.5364ZM90.6884 21.864C90.5124 22.0773 90.3017 22.264 90.0564 22.424C89.811 22.5787 89.547 22.7067 89.2644 22.808C88.987 22.9093 88.699 22.984 88.4004 23.032C88.1017 23.0853 87.8057 23.112 87.5124 23.112C86.9524 23.112 86.435 23.0187 85.9604 22.832C85.491 22.64 85.083 22.3627 84.7364 22C84.395 21.632 84.1284 21.1787 83.9364 20.64C83.7444 20.1013 83.6484 19.4827 83.6484 18.784C83.6484 18.2187 83.7337 17.6907 83.9044 17.2C84.0804 16.7093 84.331 16.2853 84.6564 15.928C84.9817 15.5653 85.379 15.2827 85.8484 15.08C86.3177 14.872 86.8457 14.768 87.4324 14.768C87.9177 14.768 88.3657 14.8507 88.7764 15.016C89.1924 15.176 89.5497 15.4107 89.8484 15.72C90.1524 16.024 90.3897 16.4027 90.5604 16.856C90.731 17.304 90.8164 17.816 90.8164 18.392C90.8164 18.616 90.7924 18.7653 90.7444 18.84C90.6964 18.9147 90.6057 18.952 90.4724 18.952H85.0564C85.0724 19.464 85.1417 19.9093 85.2644 20.288C85.3924 20.6667 85.5684 20.984 85.7924 21.24C86.0164 21.4907 86.283 21.68 86.5924 21.808C86.9017 21.9307 87.2484 21.992 87.6324 21.992C87.9897 21.992 88.2964 21.952 88.5524 21.872C88.8137 21.7867 89.0377 21.696 89.2244 21.6C89.411 21.504 89.5657 21.416 89.6884 21.336C89.8164 21.2507 89.9257 21.208 90.0164 21.208C90.1337 21.208 90.2244 21.2533 90.2884 21.344L90.6884 21.864ZM92.5655 23V14.896H93.4215C93.6242 14.896 93.7495 14.9947 93.7975 15.192L93.9015 16.024C94.2002 15.656 94.5362 15.3547 94.9095 15.12C95.2828 14.8853 95.7148 14.768 96.2055 14.768C96.7495 14.768 97.1895 14.92 97.5255 15.224C97.8668 15.528 98.1122 15.9387 98.2615 16.456C98.3788 16.1627 98.5282 15.9093 98.7095 15.696C98.8962 15.4827 99.1042 15.3067 99.3335 15.168C99.5628 15.0293 99.8055 14.928 100.062 14.864C100.323 14.8 100.587 14.768 100.854 14.768C101.28 14.768 101.659 14.8373 101.99 14.976C102.326 15.1093 102.608 15.3067 102.838 15.568C103.072 15.8293 103.251 16.152 103.374 16.536C103.496 16.9147 103.558 17.3493 103.558 17.84V23H102.126V17.84C102.126 17.2053 101.987 16.7253 101.71 16.4C101.432 16.0693 101.032 15.904 100.51 15.904C100.275 15.904 100.051 15.9467 99.8375 16.032C99.6295 16.112 99.4455 16.232 99.2855 16.392C99.1255 16.552 98.9975 16.7547 98.9015 17C98.8108 17.24 98.7655 17.52 98.7655 17.84V23H97.3335V17.84C97.3335 17.1893 97.2028 16.704 96.9415 16.384C96.6802 16.064 96.2988 15.904 95.7975 15.904C95.4455 15.904 95.1202 16 94.8215 16.192C94.5228 16.3787 94.2482 16.6347 93.9975 16.96V23H92.5655ZM112.511 14.896L107.991 25.392C107.943 25.4987 107.881 25.584 107.807 25.648C107.737 25.712 107.628 25.744 107.479 25.744H106.423L107.903 22.528L104.559 14.896H105.791C105.913 14.896 106.009 14.928 106.079 14.992C106.153 15.0507 106.204 15.1173 106.231 15.192L108.399 20.296C108.484 20.52 108.556 20.7547 108.615 21C108.689 20.7493 108.769 20.512 108.855 20.288L110.959 15.192C110.991 15.1067 111.044 15.0373 111.119 14.984C111.199 14.9253 111.287 14.896 111.383 14.896H112.511Z" fill="#444444"></path><g clip-path="url(#html-academy_0)"><path d="M266.643 0.0157537L266.5 0L253 1.40733V26.0129L266.5 34L280 26.0129V1.40733L266.643 0.0157537ZM278.234 25.0151L266.5 31.9573L254.766 25.0151V14.9293L266.451 21.8451L266.47 23.0984L258.454 18.3548L258.443 19.5801L266.489 24.3885L266.509 25.675L258.464 20.9174L258.454 22.1427L266.5 26.9511L274.624 22.1182V20.8929V16.909L278.243 14.7595L278.234 25.0151ZM278.234 13.4519L275.015 15.3319L273.533 16.2071L266.467 12.0201L266.456 13.2454L272.496 16.818L272.443 16.8495L272.313 16.9247L271.454 17.4166L266.467 14.4689L266.456 15.6942L270.392 18.0222L269.459 18.6314L269.438 18.6436L266.467 16.902L266.456 18.1273L268.403 19.2615L266.416 20.4483L254.797 13.5762L266.435 6.61831L278.234 13.4519ZM278.234 12.2266L266.44 5.31075L254.766 12.2196V2.9897L266.5 1.76442L278.234 2.9897V12.2266Z" fill="#666666"></path></g><defs><clipPath id="html-academy_0"><rect width="27" height="34" fill="white" transform="translate(253)"></rect></clipPath></defs></svg><svg viewBox="0 0 30 32" fill="none" id="leaf-adv"><g clip-path="url(#leaf-adv_0)"><path d="M27.8438 2.767C27.7434 2.317 27.3647 2 26.9325 2C26.9306 2 26.9288 2 26.9269 2C21.9891 2.033 9.98156 2.916 5.13375 10.38C2.61562 14.258 2.39906 19.293 4.48969 25.345C4.50562 25.392 4.53844 25.424 4.56 25.467C3.81281 27.44 3.52312 28.753 3.51562 28.79C3.40687 29.33 3.73031 29.862 4.23656 29.978C4.30219 29.993 4.36781 30 4.43344 30C4.86562 30 5.25469 29.679 5.34937 29.21C5.36906 29.108 7.75781 18.837 16.2028 12.832C16.6341 12.526 16.7503 11.905 16.4625 11.445C16.1747 10.985 15.5934 10.86 15.1622 11.168C10.3734 14.573 7.42406 19.176 5.68969 22.824C4.44844 18.246 4.77375 14.447 6.67594 11.519C10.4194 5.755 19.2984 4.365 24.6581 4.071C23.505 5.872 22.245 9.174 22.245 15C22.245 18.12 21.4153 20.522 19.7803 22.14C17.1591 24.731 12.9009 24.974 9.78656 24.724C9.26906 24.679 8.82 25.095 8.78062 25.646C8.74125 26.196 9.12844 26.676 9.64406 26.718C10.2675 26.769 10.9331 26.8 11.625 26.8C14.7956 26.8 18.4941 26.137 21.0544 23.606C23.0888 21.595 24.12 18.7 24.12 15.001C24.12 5.902 27.3356 3.905 27.3516 3.896C27.7416 3.687 27.9459 3.219 27.8438 2.767Z" fill="white"></path></g><defs><clipPath id="leaf-adv_0"><rect width="30" height="32" fill="white"></rect></clipPath></defs></svg><svg viewBox="0 0 28 22" fill="none" id="telegram"><path fill-rule="evenodd" clip-rule="evenodd" d="M23.4608 3.15291C23.6393 3.30222 23.7255 3.5349 23.6872 3.76448L21.0611 19.5214C21.0244 19.7411 20.8789 19.9273 20.6745 20.0159C20.47 20.1045 20.2346 20.0833 20.0493 19.9597L12.1708 14.7074C12.0177 14.6054 11.9145 14.4437 11.8862 14.2619C11.858 14.08 11.9074 13.8947 12.0223 13.751L14.633 10.4877L10.273 13.3944C10.077 13.525 9.82597 13.5407 9.61524 13.4353L4.36293 10.8092C4.12769 10.6915 3.98535 10.4449 4.0012 10.1824C4.01705 9.91983 4.18804 9.6921 4.43573 9.60364L22.8188 3.03826C23.038 2.95998 23.2822 3.00359 23.4608 3.15291ZM6.32626 10.3228L9.86168 12.0905L17.4231 7.0495C17.6925 6.86994 18.0525 6.91349 18.2712 7.1521C18.49 7.3907 18.5022 7.75314 18.3 8.00591L13.495 14.0121L19.9328 18.3039L22.2083 4.65058L6.32626 10.3228Z" fill="#666666"></path></svg><svg viewBox="0 0 28 22" fill="none" id="vkontakte"><path d="M1 5.33876C1 4.48373 1.5151 4.02268 2.54531 3.95562L6.51515 3.98077C6.78158 3.98077 6.95921 4.10651 7.04802 4.35799C7.45655 5.61538 7.91392 6.70094 8.42014 7.61465C8.92637 8.52835 9.58801 9.58038 10.4051 10.7707C10.4761 10.9216 10.5916 10.997 10.7514 10.997C10.8758 10.997 10.9735 10.9384 11.0445 10.821L11.1244 10.5444L11.1511 6.19379C11.1511 5.89201 11.0756 5.69083 10.9246 5.59024C10.7736 5.48965 10.4939 5.4142 10.0853 5.36391C9.76563 5.31361 9.60577 5.12919 9.60577 4.81065C9.60577 4.74359 9.61465 4.69329 9.63241 4.65976C10.0054 3.57002 11.0711 3.02515 12.8296 3.02515L14.3216 3C14.9966 3 15.5561 3.15927 16.0001 3.47781C16.4442 3.79635 16.6662 4.29931 16.6662 4.98669V10.6953C16.7906 10.7791 16.906 10.821 17.0126 10.821C17.279 10.821 17.5099 10.6701 17.7053 10.3683C19.6592 7.78649 20.716 6.05966 20.8759 5.18787C20.8759 5.1711 20.8936 5.12919 20.9291 5.06213C21.0535 4.81065 21.2577 4.5927 21.5419 4.40828C21.8261 4.22387 22.0748 4.09813 22.288 4.03107C22.359 3.99753 22.4389 3.98077 22.5277 3.98077H26.6574L26.9239 4.00592C27.2791 4.00592 27.5544 4.16519 27.7498 4.48373C27.8209 4.58432 27.8697 4.69329 27.8964 4.81065C27.923 4.92801 27.9408 5.04536 27.9496 5.16272C27.9585 5.28008 27.963 5.34714 27.963 5.36391V5.53994C27.8386 6.22732 27.5233 6.9608 27.0171 7.74038C26.5109 8.51997 25.867 9.36243 25.0855 10.2678C24.304 11.1731 23.8155 11.7682 23.6201 12.0533C23.4603 12.2544 23.3803 12.4389 23.3803 12.6065C23.3803 12.7406 23.4514 12.8915 23.5935 13.0592L27.4834 17.6864C27.6965 17.9546 27.8031 18.248 27.8031 18.5666C27.8031 18.9522 27.6432 19.2707 27.3235 19.5222C27.0038 19.7737 26.6219 19.9162 26.1779 19.9497L25.7249 19.9749H21.6752C21.6574 19.9749 21.6219 19.979 21.5686 19.9874C21.5153 19.9958 21.4798 20 21.462 20C21.0712 20 20.7071 19.8407 20.3696 19.5222C20.2453 19.3881 19.4105 18.3989 17.8652 16.5547C17.7764 16.4374 17.652 16.3284 17.4922 16.2278C17.4211 16.4961 17.3279 16.8817 17.2124 17.3846C17.097 17.8876 17.0126 18.248 16.9593 18.466L16.8794 18.8935C16.7018 19.4803 16.3287 19.8323 15.7604 19.9497L15.3874 19.9749H12.7763C11.3021 19.9749 9.83224 19.3378 8.36686 18.0636C6.90148 16.7894 5.58264 15.1423 4.41034 13.122C3.23803 11.1018 2.14566 8.75049 1.13322 6.06805C1.04441 5.8501 1 5.607 1 5.33876ZM17.0126 11.8521C16.6396 11.8521 16.3021 11.7557 16.0001 11.5629C15.6982 11.3701 15.5472 11.106 15.5472 10.7707V4.98669C15.5472 4.65138 15.4584 4.41248 15.2808 4.26997C15.1032 4.12747 14.7923 4.05621 14.3483 4.05621L12.8296 4.10651C12.0658 4.10651 11.4886 4.23225 11.0978 4.48373C11.8793 4.8358 12.2701 5.40582 12.2701 6.19379V10.6198C12.2346 11.039 12.0569 11.3868 11.7372 11.6635C11.4175 11.9401 11.0623 12.0784 10.6715 12.0784C10.1386 12.0784 9.7301 11.8353 9.44591 11.3491C8.06046 9.37081 7.03025 7.4931 6.35529 5.71598L6.1155 5.06213L2.57195 5.03698C2.34104 5.03698 2.21227 5.04956 2.18562 5.0747C2.15898 5.09985 2.14566 5.1711 2.14566 5.28846C2.14566 5.43935 2.16342 5.59862 2.19895 5.76627L2.75845 7.17456C4.25048 10.8126 5.87127 13.6795 7.62085 15.7751C9.37042 17.8708 11.0889 18.9186 12.7763 18.9186H15.4406C15.5472 18.9186 15.6271 18.8893 15.6804 18.8306C15.7337 18.7719 15.7781 18.6588 15.8136 18.4911L15.8669 18.2396L16.3732 16.0266C16.5152 15.7249 16.6396 15.5237 16.7462 15.4231C16.9415 15.2387 17.1725 15.1465 17.4389 15.1465C17.8652 15.1465 18.3003 15.3895 18.7444 15.8757L21.0091 18.5917C21.1512 18.8097 21.3022 18.9186 21.462 18.9186H25.8581C26.391 18.9186 26.6574 18.7929 26.6574 18.5414C26.6574 18.4576 26.6308 18.3738 26.5775 18.2899L22.7142 13.7382C22.4123 13.3861 22.2613 13.0089 22.2613 12.6065C22.2613 12.2041 22.4034 11.8185 22.6876 11.4497C22.9185 11.1144 23.367 10.557 24.0331 9.77737C24.6992 8.99778 25.2809 8.26849 25.7782 7.5895C26.2756 6.9105 26.6042 6.29438 26.764 5.74112L26.8439 5.4142C26.8262 5.38067 26.8173 5.32618 26.8173 5.25074C26.8173 5.1753 26.8084 5.11243 26.7907 5.06213H22.6077C22.3412 5.16272 22.1281 5.31361 21.9682 5.51479L21.8084 5.9926C21.3643 7.14941 20.2009 8.93491 18.3181 11.3491C17.9451 11.6844 17.5099 11.8521 17.0126 11.8521Z" fill="#666666"></path></svg><svg viewBox="0 0 28 22" fill="none" id="youtube"><path d="M17.8509 10.7927L12.6145 7.30184C12.5159 7.23691 12.4016 7.19985 12.2837 7.19459C12.1657 7.18934 12.0486 7.21608 11.9446 7.27198C11.8406 7.32789 11.7537 7.41087 11.693 7.51215C11.6324 7.61343 11.6002 7.72924 11.6 7.84729V14.8291C11.6001 14.9481 11.6327 15.0648 11.6942 15.1667C11.7557 15.2686 11.8438 15.3518 11.9491 15.4073C12.0524 15.4631 12.1691 15.4895 12.2864 15.4837C12.4037 15.478 12.5172 15.4402 12.6145 15.3746L17.8509 11.8837C17.9409 11.8239 18.0148 11.7429 18.0658 11.6477C18.1169 11.5526 18.1436 11.4462 18.1436 11.3382C18.1436 11.2302 18.1169 11.1239 18.0658 11.0287C18.0148 10.9335 17.9409 10.8525 17.8509 10.7927ZM12.9091 13.6073V9.06911L16.3127 11.3382L12.9091 13.6073ZM25.3891 5.04366C25.2942 4.67547 25.1131 4.33511 24.8609 4.05061C24.6086 3.76611 24.2924 3.54561 23.9382 3.40729C20.2182 1.9782 14.2509 2.00002 14 2.00002C13.7491 2.00002 7.78182 1.9782 4.06182 3.40729C3.70764 3.54561 3.3914 3.76611 3.13914 4.05061C2.88689 4.33511 2.70584 4.67547 2.61091 5.04366C2.32727 6.11275 2 8.07638 2 11.3382C2 14.6 2.32727 16.5637 2.61091 17.6327C2.70584 18.0009 2.88689 18.3413 3.13914 18.6258C3.3914 18.9103 3.70764 19.1308 4.06182 19.2691C7.78182 20.6982 13.7491 20.6764 14 20.6764H14.0764C14.8291 20.6764 20.3927 20.6327 23.9382 19.2691C24.2924 19.1308 24.6086 18.9103 24.8609 18.6258C25.1131 18.3413 25.2942 18.0009 25.3891 17.6327C25.6727 16.5637 26 14.6 26 11.3382C26 8.07638 25.6727 6.11275 25.3891 5.04366ZM24.1236 17.3055C24.0807 17.472 23.999 17.6259 23.8853 17.7548C23.7715 17.8838 23.6289 17.984 23.4691 18.0473C19.9782 19.3891 14.0655 19.3673 14 19.3673C13.9345 19.3673 8.02182 19.3891 4.53091 18.0473C4.37107 17.984 4.22846 17.8838 4.11471 17.7548C4.00096 17.6259 3.91929 17.472 3.87636 17.3055C3.61455 16.3018 3.30909 14.4582 3.30909 11.3382C3.30909 8.2182 3.61455 6.37457 3.87636 5.37093C3.91929 5.20445 4.00096 5.05047 4.11471 4.92156C4.22846 4.79264 4.37107 4.69243 4.53091 4.62911C8.02182 3.28729 13.9345 3.30911 14 3.30911C14.0655 3.30911 19.9782 3.28729 23.4691 4.62911C23.6289 4.69243 23.7715 4.79264 23.8853 4.92156C23.999 5.05047 24.0807 5.20445 24.1236 5.37093C24.3855 6.37457 24.6909 8.2182 24.6909 11.3382C24.6909 14.4582 24.3855 16.3018 24.1236 17.3055Z" fill="#666666"></path></svg></svg>